{
  "asset": {
    "generator": "glTF-Transform v4.5.0",
    "version": "2.0"
  },
  "accessors": [
    {
      "type": "SCALAR",
      "componentType": 5123,
      "count": 324,
      "normalized": false,
      "byteOffset": 0,
      "bufferView": 0
    },
    {
      "type": "VEC3",
      "componentType": 5120,
      "count": 216,
      "normalized": true,
      "byteOffset": 0,
      "bufferView": 1
    },
    {
      "type": "VEC2",
      "componentType": 5126,
      "count": 216,
      "normalized": false,
      "byteOffset": 0,
      "bufferView": 2
    },
    {
      "type": "VEC3",
      "componentType": 5122,
      "count": 216,
      "max": [
        32767,
        350,
        17420
      ],
      "min": [
        -32767,
        -350,
        -17420
      ],
      "normalized": true,
      "byteOffset": 0,
      "bufferView": 3
    }
  ],
  "bufferViews": [
    {
      "buffer": 1,
      "byteOffset": 0,
      "byteLength": 648,
      "target": 34963,
      "extensions": {
        "EXT_meshopt_compression": {
          "buffer": 0,
          "byteOffset": 0,
          "byteLength": 125,
          "mode": "TRIANGLES",
          "byteStride": 2,
          "count": 324
        }
      }
    },
    {
      "buffer": 1,
      "byteOffset": 648,
      "byteLength": 864,
      "target": 34962,
      "byteStride": 4,
      "extensions": {
        "EXT_meshopt_compression": {
          "buffer": 0,
          "byteOffset": 128,
          "byteLength": 245,
          "mode": "ATTRIBUTES",
          "filter": "OCTAHEDRAL",
          "byteStride": 4,
          "count": 216
        }
      }
    },
    {
      "buffer": 1,
      "byteOffset": 1512,
      "byteLength": 1728,
      "target": 34962,
      "byteStride": 8,
      "extensions": {
        "EXT_meshopt_compression": {
          "buffer": 0,
          "byteOffset": 376,
          "byteLength": 1296,
          "mode": "ATTRIBUTES",
          "byteStride": 8,
          "count": 216
        }
      }
    },
    {
      "buffer": 1,
      "byteOffset": 3240,
      "byteLength": 1728,
      "target": 34962,
      "byteStride": 8,
      "extensions": {
        "EXT_meshopt_compression": {
          "buffer": 0,
          "byteOffset": 1672,
          "byteLength": 805,
          "mode": "ATTRIBUTES",
          "byteStride": 8,
          "count": 216
        }
      }
    }
  ],
  "buffers": [
    {
      "uri": "Roof.bin",
      "byteLength": 2480
    },
    {
      "byteLength": 4968,
      "extensions": {
        "EXT_meshopt_compression": {
          "fallback": true
        }
      }
    }
  ],
  "materials": [
    {
      "name": "Charcoal metal",
      "doubleSided": true,
      "pbrMetallicRoughness": {
        "baseColorFactor": [
          0.04500000178813934,
          0.05299999937415123,
          0.054999999701976776,
          1
        ],
        "roughnessFactor": 0.30000001192092896,
        "metallicFactor": 0.7200000286102295
      }
    }
  ],
  "meshes": [
    {
      "name": "Thin upper pavilion roof.001",
      "primitives": [
        {
          "attributes": {
            "NORMAL": 1,
            "TEXCOORD_0": 2,
            "POSITION": 3
          },
          "mode": 4,
          "material": 0,
          "indices": 0
        }
      ]
    }
  ],
  "nodes": [
    {
      "name": "Roof__Structure",
      "extras": {
        "floor": "Roof",
        "category": "Structure",
        "version": "3.0"
      },
      "translation": [
        2.0266664028167725,
        12.510000228881836,
        1.9200000762939453
      ],
      "scale": [
        8.426666498184204,
        8.426666498184204,
        8.426666498184204
      ],
      "mesh": 0
    }
  ],
  "scenes": [
    {
      "name": "WEB_EXPORT",
      "nodes": [
        0
      ]
    }
  ],
  "scene": 0,
  "extensionsUsed": [
    "EXT_meshopt_compression",
    "KHR_mesh_quantization",
    "KHR_texture_transform"
  ],
  "extensionsRequired": [
    "EXT_meshopt_compression",
    "KHR_mesh_quantization"
  ]
}